<svg width="12" height="12" viewBox="0 0 12 12" fill="none" xmlns="http://www.w3.org/2000/svg">
<path fill-rule="evenodd" clip-rule="evenodd" d="M1.0263 2.3763H8.5437V8.8287H1.0263V2.3763Z" fill="#E1EEFA"/>
<path d="M8.2674 2.6526V8.5524H1.3026V2.6526H8.2674ZM8.82 2.1H0.75V9.105H8.82V2.1Z" fill="#00098A"/>
<path fill-rule="evenodd" clip-rule="evenodd" d="M8.5638 8.8035V4.1295H9.636L11.0778 6.8145V8.8035H8.5638Z" fill="white"/>
<path d="M9.4704 4.4058L10.7964 6.8721V8.5146H8.8401V4.4058H9.4701H9.4704ZM9.792 3.858H8.2848V9.0798H11.3541V6.744L9.792 3.858Z" fill="#000A8C"/>
<path fill-rule="evenodd" clip-rule="evenodd" d="M6.951 4.1619H6.165C6.09176 4.1619 6.02152 4.1328 5.96974 4.08101C5.91795 4.02923 5.88885 3.95899 5.88885 3.88575C5.88885 3.81251 5.91795 3.74227 5.96974 3.69048C6.02152 3.63869 6.09176 3.6096 6.165 3.6096H6.951C7.02424 3.6096 7.09448 3.63869 7.14627 3.69048C7.19806 3.74227 7.22715 3.81251 7.22715 3.88575C7.22715 3.95899 7.19806 4.02923 7.14627 4.08101C7.09448 4.1328 7.02424 4.1619 6.951 4.1619ZM6.966 5.571H5.1201C5.04682 5.571 4.97655 5.54189 4.92473 5.49007C4.87291 5.43825 4.8438 5.36798 4.8438 5.2947C4.8438 5.22142 4.87291 5.15114 4.92473 5.09932C4.97655 5.04751 5.04682 5.0184 5.1201 5.0184H6.9663C7.03958 5.0184 7.10986 5.04751 7.16168 5.09932C7.21349 5.15114 7.2426 5.22142 7.2426 5.2947C7.2426 5.36798 7.21349 5.43825 7.16168 5.49007C7.10986 5.54189 7.03958 5.571 6.9663 5.571H6.966Z" fill="#00098A"/>
<path d="M3.219 10.1523C3.85159 10.1523 4.3644 9.63948 4.3644 9.0069C4.3644 8.37431 3.85159 7.8615 3.219 7.8615C2.58641 7.8615 2.0736 8.37431 2.0736 9.0069C2.0736 9.63948 2.58641 10.1523 3.219 10.1523Z" fill="#FF4D58"/>
<path d="M3.219 8.1279C3.39047 8.12791 3.5581 8.17865 3.7008 8.27371C3.8435 8.36878 3.95489 8.50393 4.02096 8.66217C4.08702 8.8204 4.1048 8.99463 4.07206 9.16295C4.03932 9.33126 3.95752 9.48613 3.83696 9.60806C3.71641 9.72999 3.56247 9.81353 3.39454 9.84818C3.22661 9.88282 3.05218 9.86702 2.89321 9.80275C2.73425 9.73849 2.59784 9.62864 2.50116 9.48702C2.40448 9.34541 2.35186 9.17836 2.3499 9.0069C2.34891 8.89203 2.37065 8.77809 2.41385 8.67165C2.45705 8.5652 2.52088 8.46835 2.60165 8.38666C2.68242 8.30496 2.77854 8.24005 2.88449 8.19564C2.99044 8.15124 3.10412 8.12821 3.219 8.1279ZM3.219 7.5753C2.93834 7.57578 2.6641 7.65932 2.43084 7.8154C2.19758 7.97147 2.01573 8.19309 1.90821 8.45234C1.80068 8.71159 1.7723 8.99686 1.82663 9.27221C1.88096 9.54756 2.01557 9.80067 2.21351 9.99965C2.41144 10.1986 2.66384 10.3346 2.9389 10.3903C3.21397 10.4461 3.49938 10.4192 3.75919 10.3131C4.019 10.2069 4.24158 10.0262 4.39887 9.79379C4.55617 9.56135 4.64115 9.28756 4.6431 9.0069C4.64294 8.62992 4.4931 8.26843 4.2265 8.00189C3.95991 7.73535 3.59838 7.58558 3.2214 7.5855L3.219 7.5753Z" fill="#00098A"/>
<path d="M8.4834 10.1523C9.11598 10.1523 9.6288 9.63948 9.6288 9.0069C9.6288 8.37431 9.11598 7.8615 8.4834 7.8615C7.85081 7.8615 7.338 8.37431 7.338 9.0069C7.338 9.63948 7.85081 10.1523 8.4834 10.1523Z" fill="#FF4D58"/>
<path d="M8.4834 8.1279C8.59753 8.1279 8.71054 8.15038 8.81599 8.19406C8.92143 8.23773 9.01724 8.30175 9.09794 8.38245C9.17865 8.46316 9.24267 8.55897 9.28634 8.66441C9.33002 8.76985 9.3525 8.88287 9.3525 8.997C9.3525 9.11113 9.33002 9.22415 9.28634 9.32959C9.24267 9.43503 9.17865 9.53084 9.09794 9.61155C9.01724 9.69225 8.92143 9.75627 8.81599 9.79994C8.71054 9.84362 8.59753 9.8661 8.4834 9.8661C8.2529 9.8661 8.03184 9.77453 7.86885 9.61155C7.70586 9.44856 7.6143 9.2275 7.6143 8.997C7.6143 8.7665 7.70586 8.54544 7.86885 8.38245C8.03184 8.21947 8.2529 8.1279 8.4834 8.1279ZM8.4834 7.5753C8.29498 7.57256 8.1079 7.60731 7.93303 7.67752C7.75816 7.74773 7.59899 7.85201 7.46478 7.98428C7.33057 8.11656 7.22399 8.27419 7.15125 8.44802C7.07851 8.62185 7.04105 8.80841 7.04105 8.99685C7.04105 9.18529 7.07851 9.37185 7.15125 9.54568C7.22399 9.71951 7.33057 9.87714 7.46478 10.0094C7.59899 10.1417 7.75816 10.246 7.93303 10.3162C8.1079 10.3864 8.29498 10.4211 8.4834 10.4184C8.85684 10.413 9.21315 10.2608 9.47532 9.99482C9.73748 9.72881 9.88445 9.37033 9.88445 8.99685C9.88445 8.62337 9.73748 8.26489 9.47532 7.99888C9.21315 7.73288 8.85684 7.58072 8.4834 7.5753Z" fill="#00098A"/>
</svg>
