<svg width="14" height="11" viewBox="0 0 14 11" fill="none" xmlns="http://www.w3.org/2000/svg">
<g clip-path="url(#clip0_35_404)">
<path fill-rule="evenodd" clip-rule="evenodd" d="M12.979 1.146V8.278L11.377 10.251L11.343 10.295H0.946999L0.979999 3.164L3.33 1.146H12.979Z" fill="#E1EEFA"/>
<path d="M11.511 10.641H0.599998L0.636998 3.003L3.204 0.800003H13.322V8.4L11.512 10.641H11.511ZM1.29 9.95H11.18L12.635 8.156V1.492H3.457L1.32 3.318L1.289 9.948L1.29 9.95Z" fill="#00098A"/>
<path d="M6.134 4.822H2.905C2.80952 4.822 2.71795 4.85993 2.65044 4.92744C2.58293 4.99495 2.545 5.08652 2.545 5.182V8.254C2.545 8.454 2.706 8.614 2.905 8.614H6.135C6.23048 8.614 6.32204 8.57607 6.38956 8.50856C6.45707 8.44104 6.495 8.34948 6.495 8.254V5.182C6.495 5.08652 6.45707 4.99495 6.38956 4.92744C6.32204 4.85993 6.23048 4.822 6.135 4.822H6.134Z" fill="#FF4D58"/>
<path d="M6.15 5.168V8.265H2.889V5.168H6.152H6.15ZM6.213 4.476H2.826C2.74366 4.47639 2.6622 4.493 2.58628 4.52487C2.51036 4.55675 2.44146 4.60326 2.38352 4.66176C2.32557 4.72026 2.27972 4.7896 2.24857 4.86583C2.21743 4.94205 2.2016 5.02366 2.202 5.106V8.33C2.202 8.678 2.482 8.96 2.826 8.96H6.22C6.30233 8.95961 6.38379 8.943 6.45971 8.91112C6.53563 8.87925 6.60453 8.83274 6.66248 8.77424C6.72042 8.71573 6.76627 8.64639 6.79742 8.57017C6.82856 8.49395 6.84439 8.41234 6.844 8.33V5.105C6.844 4.758 6.564 4.475 6.22 4.475L6.213 4.476Z" fill="#00098A"/>
<path fill-rule="evenodd" clip-rule="evenodd" d="M11.592 10.295H10.902V3.507C6.984 3.487 1.352 3.472 1.025 3.507L0.911999 2.824C1.152 2.774 7.493 2.798 11.255 2.824H11.595L11.592 10.295Z" fill="#00098A"/>
<path fill-rule="evenodd" clip-rule="evenodd" d="M10.988 2.936L12.718 0.919998L13.238 1.373L11.508 3.389L10.988 2.936ZM5.236 6.037H5.211C5.16769 6.03891 5.12519 6.04942 5.08598 6.06791C5.04676 6.0864 5.01162 6.1125 4.98258 6.1447C4.95355 6.17689 4.93121 6.21454 4.91686 6.25545C4.90251 6.29636 4.89644 6.33972 4.899 6.383C4.904 6.574 5.059 6.728 5.249 6.729C5.439 6.729 5.592 6.574 5.592 6.383C5.59227 6.29167 5.55631 6.20396 5.49201 6.1391C5.42772 6.07425 5.34033 6.03753 5.249 6.037H5.236ZM3.816 6.037H3.79C3.7466 6.03878 3.704 6.04919 3.66467 6.06763C3.62534 6.08606 3.59007 6.11214 3.56093 6.14435C3.5318 6.17656 3.50937 6.21425 3.49496 6.25523C3.48054 6.2962 3.47444 6.33964 3.477 6.383C3.482 6.574 3.637 6.728 3.827 6.729C4.017 6.729 4.171 6.574 4.171 6.383C4.17113 6.33769 4.16234 6.2928 4.14512 6.2509C4.12791 6.20899 4.1026 6.17088 4.07066 6.13875C4.03872 6.10662 4.00076 6.0811 3.95895 6.06364C3.91714 6.04618 3.87231 6.03713 3.827 6.037H3.816Z" fill="#00098A"/>
</g>
<defs>
<clipPath id="clip0_35_404">
<rect width="14" height="11" fill="white"/>
</clipPath>
</defs>
</svg>
