<svg width="10" height="10" viewBox="0 0 10 10" fill="none" xmlns="http://www.w3.org/2000/svg">
<g clip-path="url(#clip0_65_109)">
<path d="M9.19228 1.42041C8.66865 0.896776 7.97541 0.610578 7.23554 0.610578C6.49566 0.610578 5.8003 0.898896 5.27667 1.42253L5.00319 1.69601L4.72547 1.41829C4.20183 0.894656 3.50436 0.604218 2.76448 0.604218C2.02673 0.604218 1.33137 0.892536 0.809854 1.41405C0.286217 1.93769 -0.00210075 2.63305 1.92378e-05 3.37292C1.92378e-05 4.1128 0.290457 4.80603 0.814094 5.32967L4.79543 9.311C4.85055 9.36612 4.92475 9.3958 4.99683 9.3958C5.06891 9.3958 5.14311 9.36824 5.19823 9.31312L9.18804 5.33815C9.71168 4.81451 10 4.11916 10 3.37928C10.0021 2.63941 9.71592 1.94405 9.19228 1.42041ZM8.78525 4.93323L4.99683 8.70681L1.21689 4.92687C0.801374 4.51135 0.572416 3.96016 0.572416 3.37292C0.572416 2.78568 0.799254 2.23449 1.21477 1.82109C1.62817 1.40769 2.17937 1.17873 2.76448 1.17873C3.35172 1.17873 3.90504 1.40769 4.32055 1.82321L4.79967 2.30233C4.91203 2.41469 5.09223 2.41469 5.20459 2.30233L5.67946 1.82745C6.09498 1.41193 6.6483 1.18297 7.23341 1.18297C7.81853 1.18297 8.36973 1.41193 8.78525 1.82533C9.20076 2.24085 9.4276 2.79204 9.4276 3.37928C9.42972 3.96652 9.20076 4.51771 8.78525 4.93323Z" fill="#000A8C"/>
</g>
<defs>
<clipPath id="clip0_65_109">
<rect width="10" height="10" fill="white"/>
</clipPath>
</defs>
</svg>
