<svg width="10" height="10" viewBox="0 0 10 10" fill="none" xmlns="http://www.w3.org/2000/svg">
<path fill-rule="evenodd" clip-rule="evenodd" d="M5.02625 0.753754C6.833 0.753754 8.2985 2.01375 8.2985 3.56925C8.2985 6.3085 5.026 9.16775 5.026 9.16775C5.026 9.16775 1.754 6.30625 1.754 3.56925C1.754 2.01375 3.2195 0.753754 5.0265 0.753754H5.02625Z" fill="#FF4D58"/>
<path d="M5.02625 9.5L4.86 9.3545C4.73075 9.237 1.5 6.38925 1.5 3.56925C1.5 1.8845 3.08075 0.5 5.02625 0.5C6.9715 0.5 8.55225 1.8845 8.55225 3.56925C8.55225 6.39175 5.3215 9.23925 5.19475 9.35925L5.02625 9.5ZM5.02625 1.003C3.36225 1.00775 2.0075 2.157 2.0075 3.56925C2.0075 5.80775 4.36825 8.20075 5.026 8.82175C5.68125 8.20075 8.04425 5.80775 8.04425 3.56925C8.04425 2.15675 6.68975 1.00775 5.026 1.00775L5.02625 1.003Z" fill="#00098A"/>
<path d="M5.02625 5.48925C5.84708 5.48925 6.5125 4.82383 6.5125 4.003C6.5125 3.18216 5.84708 2.51675 5.02625 2.51675C4.20542 2.51675 3.54 3.18216 3.54 4.003C3.54 4.82383 4.20542 5.48925 5.02625 5.48925Z" fill="#E1EEFA"/>
<path d="M5.02625 2.7685C5.27001 2.7685 5.5083 2.84079 5.71099 2.97622C5.91367 3.11164 6.07164 3.30413 6.16493 3.52934C6.25821 3.75455 6.28262 4.00237 6.23506 4.24145C6.18751 4.48053 6.07012 4.70014 5.89776 4.87251C5.72539 5.04488 5.50578 5.16226 5.2667 5.20982C5.02761 5.25738 4.7798 5.23297 4.55459 5.13968C4.32938 5.0464 4.13689 4.88843 4.00146 4.68574C3.86603 4.48306 3.79375 4.24477 3.79375 4.001C3.79441 3.67433 3.92447 3.36122 4.15547 3.13022C4.38646 2.89923 4.69957 2.76916 5.02625 2.7685ZM5.02625 2.261C4.79775 2.261 4.57148 2.30601 4.36038 2.39345C4.14927 2.48089 3.95746 2.60906 3.79588 2.77064C3.63431 2.93221 3.50614 3.12403 3.4187 3.33513C3.33125 3.54624 3.28625 3.7725 3.28625 4.001C3.28625 4.2295 3.33125 4.45576 3.4187 4.66687C3.50614 4.87798 3.63431 5.06979 3.79588 5.23137C3.95746 5.39294 4.14927 5.52111 4.36038 5.60855C4.57148 5.696 4.79775 5.741 5.02625 5.741C5.48772 5.741 5.9303 5.55768 6.25661 5.23137C6.58293 4.90505 6.76625 4.46248 6.76625 4.001C6.76625 3.53952 6.58293 3.09695 6.25661 2.77064C5.9303 2.44432 5.48772 2.261 5.02625 2.261Z" fill="#00098A"/>
<path d="M5.02625 4.40675C5.24923 4.40675 5.43 4.22599 5.43 4.003C5.43 3.78002 5.24923 3.59925 5.02625 3.59925C4.80326 3.59925 4.6225 3.78002 4.6225 4.003C4.6225 4.22599 4.80326 4.40675 5.02625 4.40675Z" fill="#00098A"/>
<path fill-rule="evenodd" clip-rule="evenodd" d="M5.02625 0.753754C3.21925 0.753754 1.75375 2.01375 1.75375 3.56925C1.75375 6.3085 5.02625 9.16775 5.02625 9.16775C5.02625 9.16775 8.2985 6.30625 8.2985 3.56925C8.2985 2.01375 6.83325 0.753754 5.02625 0.753754Z" fill="#E1EEFA"/>
<path d="M5.02625 9.5L4.86 9.3545C4.73075 9.237 1.5 6.38925 1.5 3.56925C1.5 1.8845 3.08075 0.5 5.02625 0.5C6.9715 0.5 8.55225 1.8845 8.55225 3.56925C8.55225 6.39175 5.3215 9.23925 5.19475 9.35925L5.02625 9.5ZM5.02625 1.003C3.36225 1.00775 2.0075 2.157 2.0075 3.56925C2.0075 5.80775 4.36825 8.20075 5.026 8.82175C5.68125 8.20075 8.04425 5.80775 8.04425 3.56925C8.04425 2.15675 6.68975 1.00775 5.026 1.00775L5.02625 1.003Z" fill="#00098A"/>
<path d="M5.02625 5.48925C5.84708 5.48925 6.5125 4.82383 6.5125 4.003C6.5125 3.18216 5.84708 2.51675 5.02625 2.51675C4.20542 2.51675 3.54 3.18216 3.54 4.003C3.54 4.82383 4.20542 5.48925 5.02625 5.48925Z" fill="#FF4D58"/>
<path d="M5.02625 2.7685C5.27001 2.7685 5.5083 2.84079 5.71099 2.97622C5.91367 3.11164 6.07164 3.30413 6.16493 3.52934C6.25821 3.75455 6.28262 4.00237 6.23506 4.24145C6.18751 4.48053 6.07012 4.70014 5.89776 4.87251C5.72539 5.04488 5.50578 5.16226 5.2667 5.20982C5.02761 5.25738 4.7798 5.23297 4.55459 5.13968C4.32938 5.0464 4.13689 4.88843 4.00146 4.68574C3.86603 4.48306 3.79375 4.24477 3.79375 4.001C3.79441 3.67433 3.92447 3.36122 4.15547 3.13022C4.38646 2.89923 4.69957 2.76916 5.02625 2.7685ZM5.02625 2.261C4.79775 2.261 4.57148 2.30601 4.36038 2.39345C4.14927 2.48089 3.95746 2.60906 3.79588 2.77064C3.63431 2.93221 3.50614 3.12403 3.4187 3.33513C3.33125 3.54624 3.28625 3.7725 3.28625 4.001C3.28625 4.2295 3.33125 4.45576 3.4187 4.66687C3.50614 4.87798 3.63431 5.06979 3.79588 5.23137C3.95746 5.39294 4.14927 5.52111 4.36038 5.60855C4.57148 5.696 4.79775 5.741 5.02625 5.741C5.48772 5.741 5.9303 5.55768 6.25661 5.23137C6.58293 4.90505 6.76625 4.46248 6.76625 4.001C6.76625 3.53952 6.58293 3.09695 6.25661 2.77064C5.9303 2.44432 5.48772 2.261 5.02625 2.261Z" fill="#00098A"/>
<path d="M5.02625 4.51075C5.30667 4.51075 5.534 4.28342 5.534 4.003C5.534 3.72257 5.30667 3.49525 5.02625 3.49525C4.74583 3.49525 4.5185 3.72257 4.5185 4.003C4.5185 4.28342 4.74583 4.51075 5.02625 4.51075Z" fill="#00098A"/>
</svg>
