<svg width="8" height="10" viewBox="0 0 8 10" fill="none" xmlns="http://www.w3.org/2000/svg">
<path d="M3.69625 0.93975L1.07125 2.106C0.93857 2.16511 0.825834 2.26137 0.746649 2.38314C0.667464 2.50491 0.625215 2.647 0.625 2.79225V4.55475C0.625 6.636 2.065 8.58225 4 9.05475C5.935 8.58225 7.375 6.636 7.375 4.55475V2.79225C7.37478 2.647 7.33254 2.50491 7.25335 2.38314C7.17417 2.26137 7.06143 2.16511 6.92875 2.106L4.30375 0.93975C4.20817 0.897073 4.10467 0.875015 4 0.875015C3.89533 0.875015 3.79183 0.897073 3.69625 0.93975Z" fill="#E1EEFA"/>
<path fill-rule="evenodd" clip-rule="evenodd" d="M4 9.05475C2.065 8.58225 0.625 6.636 0.625 4.55475V2.79225C0.625 2.496 0.80125 2.226 1.07125 2.106L3.69625 0.939751C3.79183 0.897074 3.89533 0.875017 4 0.875017C4.10467 0.875017 4.20817 0.897074 4.30375 0.939751L6.92875 2.106C7.06143 2.16512 7.17417 2.26137 7.25335 2.38314C7.33254 2.50491 7.37478 2.647 7.375 2.79225V4.55475C7.375 6.636 5.935 8.58225 4 9.05475ZM0.86825 1.649L3.49225 0.483251C3.65201 0.411891 3.82502 0.375008 4 0.375008C4.17498 0.375008 4.34799 0.411891 4.50775 0.483251L7.13175 1.649C7.58175 1.849 7.875 2.29775 7.875 2.79225V4.55475C7.875 6.84575 6.297 9.0085 4.1185 9.5405L4 9.5695L3.8815 9.5405C1.703 9.0085 0.125 6.8455 0.125 4.55475V2.79225C0.125203 2.55026 0.195505 2.3135 0.327407 2.11061C0.459308 1.90773 0.64716 1.74739 0.86825 1.649Z" fill="#00098A"/>
<path d="M3.42299 6.50725L2.14099 5.36975C2.10623 5.33506 2.07865 5.29385 2.05983 5.24849C2.04101 5.20312 2.03133 5.15449 2.03133 5.10538C2.03133 5.05626 2.04101 5.00763 2.05983 4.96227C2.07865 4.9169 2.10623 4.8757 2.14099 4.841C2.17569 4.80624 2.21689 4.77866 2.26226 4.75984C2.30762 4.74102 2.35625 4.73134 2.40537 4.73134C2.45448 4.73134 2.50311 4.74102 2.54848 4.75984C2.59384 4.77866 2.63505 4.80624 2.66974 4.841L3.68924 5.71225L5.61499 3.17475C5.64969 3.13999 5.69089 3.11241 5.73626 3.09359C5.78162 3.07477 5.83025 3.06509 5.87937 3.06509C5.92848 3.06509 5.97711 3.07477 6.02248 3.09359C6.06784 3.11241 6.10905 3.13999 6.14374 3.17475C6.28999 3.321 6.28999 3.55725 6.14374 3.7035L3.95174 6.50725C3.80924 6.6535 3.56924 6.6535 3.42299 6.50725Z" fill="#00098A"/>
</svg>
