<svg width="601" height="254" viewBox="0 0 601 254" fill="none" xmlns="http://www.w3.org/2000/svg">
<path d="M172 0.300003H136.9C134.5 0.300003 132.6 2.20001 132.6 4.60001V97.4C118.7 84.9 100.9 77.2 81.2 77.2C37 77.2 0.399994 116.6 0.399994 165.2C0.399994 213.8 36.5 253.2 81.2 253.2C100.9 253.2 118.7 245.5 132.6 233L136.4 243C137.4 245.4 139.8 247.3 142.2 247.3H172C174.4 247.3 176.3 245.4 176.3 243V4.60001C176.8 2.20001 174.9 0.300003 172 0.300003ZM88.9 208.9C64.9 208.9 44.7 189.2 44.7 164.7C44.7 140.7 64.4 120.5 88.9 120.5C112.9 120.5 132.6 140.2 132.6 164.7C132.6 189.2 112.9 208.9 88.9 208.9ZM317.7 77.2C298 77.2 280.2 84.9 266.3 97.4V4.60001C266.3 2.20001 264.4 0.300003 262 0.300003H226.8C224.4 0.300003 222.5 2.20001 222.5 4.60001V243C222.5 245.4 224.4 247.3 226.8 247.3H256.6C259 247.3 261.4 245.4 262.4 243L266.2 232.9C280.6 245.4 298.4 253.1 317.6 253.1C362.3 253.1 398.4 213.7 398.4 165.1C398.4 116.5 361.9 77.2 317.7 77.2ZM310.5 208.9C286.5 208.9 266.8 189.2 266.8 164.7C266.8 140.7 286.5 120.5 310.5 120.5C334.5 120.5 354.2 140.2 354.2 164.7C354.2 189.2 334.5 208.9 310.5 208.9ZM596.5 83H563.8C561.4 83 559 84.9 558.5 87.3L556.6 97.4C542.7 84.9 524.9 77.2 505.2 77.2C460.5 77.2 424.4 116.6 424.4 165.2C424.4 213.8 460.5 253.2 505.2 253.2C524.9 253.2 542.7 245.5 556.6 233L560.4 243.1C561.4 245.5 563.8 247.4 566.2 247.4H596C598.4 247.4 600.3 245.5 600.3 243.1V87.3C600.8 84.9 598.9 83 596.5 83ZM556.6 165.2C556.6 189.2 536.9 208.9 512.9 208.9C488.9 208.9 468.7 189.2 468.7 164.7C468.7 140.7 488.4 120.5 512.9 120.5C536.9 120.9 556.6 140.6 556.6 165.2Z" fill="#000A8C"/>
</svg>
